<svg xmlns="http://www.w3.org/2000/svg"  viewBox="0 0 48 48" width="48px" height="48px" baseProfile="basic"><polygon fill="#0d47a1" points="3.319,24 13.66,42 34.34,42 44.681,24 34.34,6 13.66,6"/><polygon fill="#3949ab" points="44.68,24 24,24 34.34,6"/><polygon fill="#5c6bc0" points="44.68,24 34.34,42 13.66,42 24,24"/><path fill="#fff" d="M14.251,18.693h1.886l3.49,10.564h-1.729l-1.703-5.753c-0.344-1.145-0.69-2.324-0.994-3.52h-0.064	c-0.318,1.195-0.645,2.375-0.989,3.52l-1.729,5.753h-1.658L14.251,18.693z M12.721,24.937h4.901v1.293h-4.901V24.937z"/><path fill="#fff" d="M20.04,27.897l0.951-1.116c0.804,0.754,1.871,1.253,3.019,1.253c1.338,0,2.08-0.616,2.08-1.466	c0-1.033-0.772-1.319-1.819-1.762l-1.49-0.654c-1.078-0.425-2.262-1.206-2.262-2.762c0-1.647,1.482-2.891,3.568-2.891	c1.307,0,2.499,0.517,3.319,1.324l-0.836,1.034c-0.706-0.592-1.473-0.942-2.552-0.942c-1.111,0-1.859,0.515-1.859,1.379	c0,0.917,0.911,1.251,1.842,1.613l1.433,0.631c1.325,0.516,2.315,1.288,2.315,2.832c0,1.696-1.431,3.08-3.827,3.08	C22.406,29.45,21.033,28.861,20.04,27.897z"/><path fill="#fff" d="M28.972,18.693h1.866l1.366,4.312l0.474,1.644h0.064l0.461-1.644l1.38-4.312h1.866v10.564h-1.478	v-4.764c0-1.071,0.174-3.074,0.25-4.038h-0.048l-0.651,2.261l-1.335,3.74H32.17l-1.316-3.74l-0.649-2.261h-0.038	c0.103,0.964,0.25,2.967,0.25,4.038v4.764h-1.445V18.693z"/></svg>